<svg width="29" height="29" viewBox="0 0 29 29" fill="none" xmlns="http://www.w3.org/2000/svg">
<path d="M26.8994 17.5905C26.4626 17.1908 26.1162 16.7155 25.8804 16.1919C25.6446 15.6684 25.524 15.107 25.5256 14.5403V10.9922C25.5256 8.21548 24.3261 5.55245 22.1909 3.58899C20.0558 1.62552 17.1599 0.522461 14.1403 0.522461C11.1207 0.522461 8.22482 1.62552 6.08966 3.58899C3.9545 5.55245 2.75498 8.21548 2.75498 10.9922V14.5403C2.75659 15.107 2.636 15.6684 2.40019 16.1919C2.16438 16.7155 1.81802 17.1908 1.38116 17.5905C0.828932 18.0983 0.452857 18.7452 0.300491 19.4496C0.148125 20.1539 0.226312 20.8839 0.525165 21.5474C0.824017 22.2108 1.33011 22.7779 1.97944 23.1768C2.62877 23.5758 3.39217 23.7887 4.17308 23.7886H7.94162C8.23196 25.1035 9.0077 26.2856 10.1374 27.1347C11.2671 27.9839 12.6813 28.4477 14.1403 28.4477C15.5993 28.4477 17.0135 27.9839 18.1432 27.1347C19.2729 26.2856 20.0486 25.1035 20.339 23.7886H24.1088C24.8897 23.7887 25.6531 23.5758 26.3024 23.1768C26.9517 22.7779 27.4578 22.2108 27.7567 21.5474C28.0555 20.8839 28.1337 20.1539 27.9813 19.4496C27.829 18.7452 27.4516 18.0983 26.8994 17.5905ZM14.1403 26.1153C13.3582 26.1123 12.5961 25.8871 11.9585 25.4707C11.3208 25.0542 10.8387 24.4667 10.578 23.7886H17.7026C17.4419 24.4667 16.9598 25.0542 16.3221 25.4707C15.6844 25.8871 14.9224 26.1123 14.1403 26.1153ZM24.1075 21.462H4.17308C3.89249 21.4622 3.61815 21.3858 3.38479 21.2425C3.15143 21.0992 2.96953 20.8955 2.86213 20.6571C2.75473 20.4187 2.72665 20.1564 2.78143 19.9033C2.83622 19.6503 2.97142 19.4178 3.16991 19.2354C3.84247 18.6203 4.37569 17.8886 4.73875 17.0827C5.10181 16.2768 5.28749 15.4127 5.28505 14.5403V10.9922C5.28505 8.83254 6.21801 6.76129 7.87869 5.23415C9.53937 3.70702 11.7917 2.84908 14.1403 2.84908C16.4888 2.84908 18.7412 3.70702 20.4019 5.23415C22.0626 6.76129 22.9955 8.83254 22.9955 10.9922V14.5403C22.9931 15.4127 23.1788 16.2768 23.5418 17.0827C23.9049 17.8886 24.4381 18.6203 25.1107 19.2354C25.3092 19.4178 25.4444 19.6503 25.4991 19.9033C25.5539 20.1564 25.5258 20.4187 25.4184 20.6571C25.311 20.8955 25.1291 21.0992 24.8958 21.2425C24.6624 21.3858 24.3881 21.4622 24.1075 21.462Z" fill="#100F0F"/>
</svg>
