<svg width="24" height="24" viewBox="0 0 24 24" fill="none" xmlns="http://www.w3.org/2000/svg">
<path d="M8.86902 21.2738C8.59243 21.2738 8.36057 21.1802 8.17348 20.9932C7.98638 20.8061 7.89282 20.5743 7.89282 20.2977V4.67857C7.89282 4.40198 7.98638 4.17014 8.17348 3.98304C8.36057 3.79593 8.59243 3.70238 8.86902 3.70238H10.8214V1.75H14.7262V3.70238H16.6785C16.9551 3.70238 17.1869 3.79593 17.3741 3.98304C17.5612 4.17014 17.6548 4.40198 17.6548 4.67857V20.2977C17.6548 20.5743 17.5612 20.8061 17.3741 20.9932C17.1869 21.1802 16.9551 21.2738 16.6785 21.2738H8.86902ZM9.8452 7.60714H15.7023V5.65477H9.8452V7.60714Z" fill="#333333"/>
</svg>
