<svg width="149" height="36" viewBox="0 0 149 36" fill="none" xmlns="http://www.w3.org/2000/svg">
<path d="M142.686 24.3396C140.717 24.3396 138.953 25.1654 137.845 26.422L127.878 21.3598C128.493 20.0314 128.493 18.5594 127.878 17.231L137.845 12.1688C138.953 13.4254 140.717 14.2511 142.686 14.2511C146.09 14.2511 148.839 11.8457 148.839 8.8658C148.839 5.88591 146.09 3.48047 142.686 3.48047C139.281 3.48047 136.533 5.88591 136.533 8.8658C136.533 9.58384 136.697 10.3019 136.984 10.9122L127.016 16.0103C125.868 14.7538 124.145 13.928 122.176 13.928C118.772 13.928 116.023 16.3334 116.023 19.3133C116.023 22.2932 118.772 24.6987 122.176 24.6987C124.145 24.6987 125.909 23.8729 127.016 22.6163L136.984 27.6785C136.697 28.2889 136.533 29.0069 136.533 29.725C136.533 32.7048 139.281 35.1103 142.686 35.1103C146.09 35.1103 148.839 32.7048 148.839 29.725C148.839 26.7451 146.09 24.3396 142.686 24.3396ZM142.686 4.95246C145.188 4.95246 147.198 6.71167 147.198 8.9017C147.198 11.0917 145.188 12.8509 142.686 12.8509C140.184 12.8509 138.174 11.0917 138.174 8.9017C138.174 6.71167 140.184 4.95246 142.686 4.95246ZM122.176 23.2626C119.674 23.2626 117.664 21.5034 117.664 19.3133C117.664 17.1233 119.674 15.3641 122.176 15.3641C124.678 15.3641 126.688 17.1233 126.688 19.3133C126.688 21.5034 124.678 23.2626 122.176 23.2626ZM142.686 33.6742C140.184 33.6742 138.174 31.915 138.174 29.725C138.174 27.5349 140.184 25.7757 142.686 25.7757C145.188 25.7757 147.198 27.5349 147.198 29.725C147.198 31.915 145.188 33.6742 142.686 33.6742Z" fill="#100F0F"/>
<path d="M32.8912 12.5956C32.8912 10.7944 31.3977 9.32948 29.5629 9.32948H21.2002C21.8147 7.35858 22.5447 3.60075 20.174 1.31017C19.4586 0.61932 18.5482 0.228358 17.6102 0.20904C16.6651 0.186962 15.8415 0.519509 15.2278 1.16299C14.8917 1.51741 14.706 1.98422 14.7084 2.46834V2.79537C14.7084 6.15763 13.1469 9.27153 10.5315 11.1238C9.7584 11.6716 8.90881 12.1072 8.00898 12.4172C7.98765 12.0219 7.81286 11.6497 7.52053 11.377C7.2282 11.1043 6.84052 10.9518 6.43714 10.9508H1.65645C1.23757 10.9513 0.835978 11.1148 0.539739 11.4053C0.2435 11.6959 0.0767921 12.0899 0.0761719 12.5009V30.2873C0.0766681 30.6984 0.243321 31.0925 0.539573 31.3832C0.835826 31.6738 1.23749 31.8373 1.65645 31.8378H6.43808C6.85688 31.8372 7.25835 31.6737 7.55449 31.3832C7.85062 31.0926 8.01727 30.6987 8.01789 30.2878V29.6563C10.8048 30.1181 13.6799 30.3503 16.629 30.3503C19.926 30.3503 23.3149 30.0615 26.7717 29.4838C27.6132 29.4608 28.4125 29.1169 28.9998 28.5251C29.5871 27.9333 29.9162 27.1402 29.9173 26.3142C29.9173 25.783 29.7818 25.2826 29.5455 24.8424C30.8942 24.4376 31.8787 23.2049 31.8787 21.751C31.8787 21.0703 31.6621 20.4401 31.295 19.9186C31.7803 19.6396 32.1829 19.2412 32.4629 18.7626C32.7429 18.284 32.8905 17.7419 32.8912 17.1901C32.8912 16.2969 32.5115 15.491 31.9035 14.9143C32.2165 14.6113 32.465 14.2503 32.6346 13.8522C32.8042 13.4542 32.8914 13.027 32.8912 12.5956ZM6.14274 29.998H1.95132V12.7906H6.14274V29.998ZM29.6622 15.8622C30.4085 15.8622 31.0161 16.4579 31.0161 17.1906C31.0161 17.9233 30.4085 18.5185 29.6622 18.5185H24.1141C23.8655 18.5185 23.627 18.6154 23.4512 18.7879C23.2754 18.9604 23.1766 19.1944 23.1766 19.4384C23.1766 19.6823 23.2754 19.9163 23.4512 20.0888C23.627 20.2614 23.8655 20.3583 24.1141 20.3583H28.584C28.9605 20.3586 29.3214 20.5056 29.5875 20.7668C29.8537 21.028 30.0033 21.3821 30.0035 21.7515C30.003 22.1207 29.8533 22.4746 29.5872 22.7356C29.3211 22.9966 28.9603 23.1434 28.584 23.1438H25.3274C25.0787 23.1438 24.8402 23.2407 24.6644 23.4132C24.4886 23.5857 24.3898 23.8197 24.3898 24.0637C24.3898 24.3076 24.4886 24.5416 24.6644 24.7141C24.8402 24.8867 25.0787 24.9836 25.3274 24.9836H26.6859C27.0456 24.9839 27.3904 25.1243 27.6446 25.3739C27.8989 25.6234 28.0419 25.9618 28.0421 26.3147C28.0416 26.6674 27.8986 27.0056 27.6443 27.2551C27.3901 27.5045 27.0454 27.6449 26.6859 27.6453C26.6325 27.6453 26.5795 27.6499 26.5275 27.6587C20.0455 28.7492 13.8229 28.7902 8.01789 27.7875V14.3494C9.31461 13.9796 10.5365 13.393 11.6299 12.6154C14.7319 10.4182 16.584 6.7473 16.584 2.79537V2.46834C16.5835 2.4512 16.5884 2.43432 16.5981 2.42004C16.8442 2.16155 17.1663 2.03828 17.5718 2.0484C18.0293 2.0576 18.4859 2.26136 18.8586 2.6215C21.1641 4.8486 19.0883 9.70343 19.0133 9.87453C18.9664 9.97664 18.9401 10.0884 18.9345 10.2057C18.9345 10.2177 18.9312 10.2296 18.9308 10.2411L18.9303 10.2494C18.9303 10.2807 18.9364 10.3106 18.9397 10.3414C18.9425 10.369 18.943 10.3966 18.9481 10.4228C18.9542 10.455 18.9655 10.4853 18.9748 10.5162C18.9833 10.5428 18.9894 10.57 19.0002 10.5953C19.0105 10.621 19.025 10.644 19.0377 10.6684C19.0531 10.6978 19.0672 10.7282 19.0859 10.7558C19.0967 10.7719 19.1103 10.7857 19.122 10.8009C19.1469 10.834 19.1722 10.8667 19.2017 10.8961C19.2102 10.9044 19.2205 10.9113 19.2289 10.9191C19.2645 10.9522 19.3011 10.9835 19.3424 11.0111C19.3471 11.0143 19.3517 11.0157 19.3564 11.0189C19.3996 11.0465 19.4432 11.0732 19.4919 11.0939C19.6213 11.15 19.7563 11.1721 19.889 11.1693H29.5629C30.3645 11.1693 31.0166 11.8086 31.0166 12.5952C31.0166 13.3817 30.365 14.0219 29.5633 14.0219H23.5071C23.2584 14.0219 23.0199 14.1189 22.8441 14.2914C22.6683 14.4639 22.5695 14.6979 22.5695 14.9418C22.5695 15.1858 22.6683 15.4198 22.8441 15.5923C23.0199 15.7648 23.2584 15.8618 23.5071 15.8618H29.6618L29.6622 15.8622Z" fill="#100F0F"/>
<path d="M82.1134 2.38965H62.4243C60.6837 2.38965 59.0144 3.07911 57.7836 4.30637C56.5528 5.53363 55.8613 7.19815 55.8613 8.93375V19.8406C55.8613 21.5762 56.5528 23.2407 57.7836 24.468C59.0144 25.6952 60.6837 26.3847 62.4243 26.3847H71.9188L82.5728 33.8231C82.7506 33.9483 82.9617 34.0178 83.1793 34.0227C83.3969 34.0276 83.6109 33.9676 83.7942 33.8505C83.9774 33.7334 84.1214 33.5645 84.2078 33.3653C84.2942 33.1661 84.319 32.9458 84.2792 32.7325L83.3494 26.1884C84.8349 25.9044 86.1765 25.1176 87.1472 23.9609C88.1179 22.8042 88.6581 21.3487 88.6764 19.8406V8.93375C88.6764 7.19815 87.9849 5.53363 86.7541 4.30637C85.5233 3.07911 83.854 2.38965 82.1134 2.38965ZM86.4887 19.8406C86.4887 20.9977 86.0278 22.1073 85.2072 22.9255C84.3867 23.7437 83.2738 24.2033 82.1134 24.2033C81.9559 24.2018 81.7999 24.2342 81.6561 24.2983C81.5124 24.3623 81.3842 24.4567 81.2803 24.5747C81.1764 24.6928 81.0994 24.8318 81.0544 24.9823C81.0094 25.1328 80.9975 25.2912 81.0195 25.4467L81.7524 30.5947L72.8814 24.3996C72.7016 24.2744 72.4882 24.206 72.2689 24.2033H62.4243C61.2639 24.2033 60.151 23.7437 59.3305 22.9255C58.51 22.1073 58.049 20.9977 58.049 19.8406V8.93375C58.049 7.77668 58.51 6.667 59.3305 5.84883C60.151 5.03066 61.2639 4.57102 62.4243 4.57102H82.1134C83.2738 4.57102 84.3867 5.03066 85.2072 5.84883C86.0278 6.667 86.4887 7.77668 86.4887 8.93375V19.8406Z" fill="#100F0F"/>
<path d="M82.113 7.84277H67.8931C67.603 7.84277 67.3248 7.95768 67.1196 8.16223C66.9145 8.36677 66.7993 8.64419 66.7993 8.93346C66.7993 9.22272 66.9145 9.50014 67.1196 9.70469C67.3248 9.90923 67.603 10.0241 67.8931 10.0241H82.113C82.4031 10.0241 82.6813 9.90923 82.8864 9.70469C83.0916 9.50014 83.2068 9.22272 83.2068 8.93346C83.2068 8.64419 83.0916 8.36677 82.8864 8.16223C82.6813 7.95768 82.4031 7.84277 82.113 7.84277ZM82.113 13.2962H62.4239C62.1338 13.2962 61.8556 13.4111 61.6505 13.6156C61.4453 13.8202 61.3301 14.0976 61.3301 14.3869C61.3301 14.6761 61.4453 14.9536 61.6505 15.1581C61.8556 15.3626 62.1338 15.4776 62.4239 15.4776H82.113C82.4031 15.4776 82.6813 15.3626 82.8864 15.1581C83.0916 14.9536 83.2068 14.6761 83.2068 14.3869C83.2068 14.0976 83.0916 13.8202 82.8864 13.6156C82.6813 13.4111 82.4031 13.2962 82.113 13.2962ZM82.113 18.7496H62.4239C62.1338 18.7496 61.8556 18.8645 61.6505 19.0691C61.4453 19.2736 61.3301 19.551 61.3301 19.8403C61.3301 20.1296 61.4453 20.407 61.6505 20.6115C61.8556 20.8161 62.1338 20.931 62.4239 20.931H82.113C82.4031 20.931 82.6813 20.8161 82.8864 20.6115C83.0916 20.407 83.2068 20.1296 83.2068 19.8403C83.2068 19.551 83.0916 19.2736 82.8864 19.0691C82.6813 18.8645 82.4031 18.7496 82.113 18.7496Z" fill="#100F0F"/>
</svg>
