<svg width="31" height="29" viewBox="0 0 31 29" fill="none" xmlns="http://www.w3.org/2000/svg">
<path fill-rule="evenodd" clip-rule="evenodd" d="M26.3704 24.3501C26.3704 25.1614 25.5486 25.5083 24.5351 25.5083H22.7014C21.6879 25.5083 20.8661 25.1614 20.8661 24.3501V22.8803C20.8661 21.2563 19.2258 19.6294 17.1971 19.6294H13.5281C11.5011 19.6294 9.85912 21.2563 9.85912 22.8803V24.3501C9.85912 25.1614 9.03724 25.5083 8.02547 25.5083H6.19013C5.17836 25.5083 4.35648 25.1614 4.35648 24.3501V12.4997C4.35648 12.3042 4.45317 12.1176 4.6241 11.9794L14.0478 4.43091C14.4014 4.15359 14.8645 3.99961 15.3453 3.99961C15.8261 3.99961 16.2893 4.15359 16.6428 4.43091L26.1028 12.0088C26.1864 12.0753 26.2533 12.1556 26.2993 12.2447C26.3453 12.3339 26.3695 12.4303 26.3704 12.5277V24.3501ZM30.0394 11.7296C30.0378 11.5347 29.9896 11.3421 29.8975 11.1637C29.8055 10.9853 29.6716 10.8248 29.5041 10.692L17.9498 1.38857C17.2433 0.833242 16.3176 0.524101 15.356 0.522467C14.3943 0.520834 13.4671 0.826856 12.758 1.37978L1.22621 10.5876C1.05752 10.7204 0.92264 10.8813 0.829977 11.0603C0.737314 11.2393 0.688821 11.4326 0.6875 11.6282V25.8198C0.6875 27.4438 2.32775 28.4477 4.35648 28.4477H9.8608C11.8878 28.4477 13.5298 27.4438 13.5298 25.8198V24.3501C13.5298 23.5388 14.3517 22.8803 15.3634 22.8803C16.3769 22.8803 17.1988 23.5388 17.1988 24.3501V25.8198C17.1988 27.4438 18.839 28.4477 20.8678 28.4477H26.3704C28.3974 28.4477 30.0394 27.4438 30.0394 25.8198V11.7296Z" fill="#100F0F"/>
</svg>
