<svg width="29" height="29" viewBox="0 0 29 29" fill="none" xmlns="http://www.w3.org/2000/svg">
<path d="M28.3656 26.0935L23.2058 20.9544C25.2087 18.4469 26.1786 15.2641 25.9162 12.0606C25.6537 8.85701 24.1789 5.87617 21.7948 3.73096C19.4108 1.58576 16.2988 0.439245 13.0987 0.527168C9.8986 0.615092 6.85369 1.93077 4.59005 4.20367C2.3264 6.47658 1.01608 9.53394 0.928516 12.7471C0.840951 15.9603 1.9828 19.085 4.11926 21.4788C6.25573 23.8726 9.22443 25.3535 12.4149 25.617C15.6054 25.8805 18.7752 24.9066 21.2725 22.8955L26.3907 28.0346C26.52 28.1655 26.6738 28.2694 26.8433 28.3403C27.0128 28.4112 27.1946 28.4477 27.3782 28.4477C27.5618 28.4477 27.7436 28.4112 27.913 28.3403C28.0825 28.2694 28.2364 28.1655 28.3656 28.0346C28.6163 27.7742 28.7564 27.4262 28.7564 27.0641C28.7564 26.7019 28.6163 26.3539 28.3656 26.0935ZM13.4701 22.8955C11.5446 22.8955 9.66232 22.3222 8.06131 21.2481C6.46029 20.1739 5.21245 18.6472 4.47559 16.861C3.73872 15.0748 3.54592 13.1092 3.92157 11.213C4.29722 9.31674 5.22445 7.57492 6.586 6.2078C7.94756 4.84068 9.68228 3.90965 11.5708 3.53247C13.4593 3.15528 15.4168 3.34886 17.1958 4.08874C18.9748 4.82863 20.4953 6.08157 21.565 7.68913C22.6348 9.2967 23.2058 11.1867 23.2058 13.1201C23.2058 15.7127 22.18 18.1991 20.3543 20.0324C18.5285 21.8656 16.0522 22.8955 13.4701 22.8955Z" fill="#100F0F"/>
</svg>
